#N canvas 827 239 527 327 12;
#X floatatom 341 103 9 0 0 0 empty - - 24;
#X obj 341 222 sig~;
#X obj 341 256 saw2~;
#X floatatom 446 296 13 0 0 0 empty - - 24;
#X obj 346 74 mtof;
#X obj 394 364 lop~ 100;
#X obj 446 222 sig~;
#X obj 446 256 saw2~;
#X obj 551 222 sig~;
#X obj 551 256 saw2~;
#X obj 656 222 sig~;
#X obj 656 256 saw2~;
#X obj 761 222 sig~;
#X obj 761 256 saw2~;
#X obj 866 222 sig~;
#X obj 866 256 saw2~;
#X obj 971 222 sig~;
#X obj 971 256 saw2~;
#X obj 762 195 * 2;
#X obj 551 195 * -2;
#X obj 437 183 * -3;
#X obj 344 183 * -4;
#X obj 855 183 * 3;
#X obj 980 183 * 4;
#X obj 567 392 vline~;
#X msg 704 375 1 5 \, 0.5 1500 5 \, 0 2500 4005;
#X obj 456 579 *~;
#X obj 461 392 hip~;
#X obj 382 1 notein;
#X obj 485 100 sel 0;
#X floatatom 354 52 5 0 0 0 empty - - 12;
#X floatatom 446 64 5 0 0 0 empty - - 12;
#X obj 461 645 dac~;
#X floatatom 495 361 5 0 0 0 empty - - 12;
#X obj 361 431 chorus~ 0.5 5 0.5;
#X obj 361 473 chorus~ 0.3 5 0.5;
#X connect 0 0 10 0;
#X connect 0 0 19 0;
#X connect 0 0 20 0;
#X connect 0 0 21 0;
#X connect 0 0 18 0;
#X connect 0 0 22 0;
#X connect 0 0 23 0;
#X connect 1 0 2 0;
#X connect 2 0 5 0;
#X connect 3 0 5 1;
#X connect 4 0 0 0;
#X connect 5 0 27 0;
#X connect 6 0 7 0;
#X connect 7 0 5 0;
#X connect 8 0 9 0;
#X connect 9 0 5 0;
#X connect 10 0 11 0;
#X connect 11 0 5 0;
#X connect 12 0 13 0;
#X connect 13 0 5 0;
#X connect 14 0 15 0;
#X connect 15 0 5 0;
#X connect 16 0 17 0;
#X connect 17 0 5 0;
#X connect 18 0 12 0;
#X connect 19 0 8 0;
#X connect 20 0 6 0;
#X connect 21 0 1 0;
#X connect 22 0 14 0;
#X connect 23 0 16 0;
#X connect 24 0 26 1;
#X connect 25 0 24 0;
#X connect 26 0 32 0;
#X connect 26 0 32 1;
#X connect 27 0 34 0;
#X connect 28 0 30 0;
#X connect 28 1 31 0;
#X connect 29 1 25 0;
#X connect 30 0 4 0;
#X connect 31 0 29 0;
#X connect 33 0 27 1;
#X connect 34 0 35 0;
#X connect 35 0 26 0;
